<svg width="504" height="338" viewBox="0 0 504 338" fill="none" xmlns="http://www.w3.org/2000/svg">
<g clip-path="url(#clip0_74_9761)">
<path d="M206.1 38.8C206 38 202.9 39 202.5 39.3C201.4 40 201 41.1 200.3 42.2C199.6 43.4 198.4 44.1 197.4 45.1C196.9 45.6 196.1 46.2 196.3 47C196.4 47.7 197.2 47.8 197.5 48.4C197.8 49.1 196.6 49.4 196.1 49.8C195.5 50.3 195.4 50.9 195.8 51.5C195.9 51.7 196.4 51.9 196.4 52.1C196.5 52.5 195.8 52.6 195.5 52.8C194.9 53.2 194.1 53.9 194.2 54.7C194.3 55.4 195.5 55.7 195.5 56.3C195.5 56.7 194.6 57.1 194.3 57.4C194 57.7 193.7 58.1 193.6 58.5C193.5 59 193.8 59.4 193.9 59.8C194 60.1 193.9 60.3 194.1 60.6C194.2 60.9 194.5 61.3 194.5 61.6C194 61.8 194.5 62.5 194.2 62.8C194.1 62.9 193.6 62.7 193.4 62.8C193 62.9 193 63 193.1 63.5C193.2 64.3 193.3 64.4 192.6 64.9C192.1 65.3 192 65.5 192.1 66.1C192.2 66.8 192.5 66.9 191.9 67.2C191.5 67.4 191 67.5 190.9 67.9C190.7 68.6 191.8 69.4 191.9 70.2C192.1 70.8 191.6 70.9 191.4 71.3C191.2 71.8 191.6 72 191.5 72.5C191.4 72.9 190.8 73.2 190.8 73.6C190.9 74 191.6 74.1 191.8 74.5C192.2 75.2 191.8 75.3 191.4 75.7C191 76.2 190 77.8 191 78.1C190.9 78.9 189.7 79 189.7 79.8C189.7 80.6 190.7 80.9 190.6 81.5C190.6 81.2 189.7 81.9 189.6 82.1C189.3 82.6 189.4 83.3 189.6 83.8C189.9 84.7 190.1 84.5 189.4 85.1C188.5 85.8 188.9 85.9 189.2 86.8C189.4 87.5 189.2 87.1 189.1 87.7C189 88.1 189.1 88.4 189.1 88.8C189.1 89.6 188.8 89.5 188.3 89.9C187.5 90.6 188.3 91 188.7 91.6C189.3 92.9 187.4 92.3 186.8 93.1C186.3 93.6 186.7 94.1 186.9 94.6C187.4 95.6 186.6 95.3 185.7 95.7C185.3 95.9 184.5 96.5 185.4 96.9C184.7 97.2 184.4 98.4 184.5 99.1C185.1 99.1 186.1 99.2 186.1 99.8C186.2 100.8 184.3 101 185.4 102C185.6 102.2 186.1 102.1 186.1 102.5C186.2 102.9 185.5 103.2 185.4 103.5C185.2 104.1 185.6 104.2 186 104.6C186.6 105.1 186.4 105.1 186.7 105.9C187.1 107.3 188.3 107.8 189.3 108.5C190.4 109.3 191.3 110.5 192.5 111.5C195 113.6 199.7 115.8 202.7 116.1C207 116.6 211.3 112.8 215.8 112.9C219 112.9 221.3 113.5 224.3 111.7C226.4 110.5 228.6 109 230.9 107.9C235.3 105.7 240 106.5 244.4 104.8C247 103.8 249.2 102 251.2 100.1C252.4 99 254.3 98.6 254.8 96.8C255.7 93.6 252.8 90.4 253.5 87.2C254.2 84.3 256.9 84.1 256 80.6C255.7 79.4 254.2 76.7 253.2 76.2C253.2 75.2 253.4 74.2 254.1 73.4C254.4 73.1 254.8 72.9 255.1 72.7C255.6 72.4 255.6 72.3 255.8 71.7C256.1 71.1 256.3 70.9 257 70.7C257.9 70.4 258.1 70.3 257.6 69.5C257.4 69.2 256.9 68.6 257 68.3C257.1 68 257.6 68 257.7 67.8C257.9 67.3 257 66.9 257.1 66.4C257.2 66 258.1 65.9 258.2 65.5C258.4 65.1 257.8 64.4 257.6 64C257.3 63.5 256.7 62.8 256.8 62.1C256.9 61.5 257.5 61.6 257.8 61.4C257.4 61.2 256.7 60.9 256.9 60.4C257 60.1 257.6 60 257.9 59.8C258.2 59.4 258.5 58.6 258.4 58.1C258 57.9 257.7 57.5 257.4 57.2C257.5 56.3 258.5 56.3 257.8 55.4C257.1 54.6 256.2 54.9 256.6 53.8C257.1 52.5 256.2 52.3 255.3 51.3C253.9 49.8 256.5 50.3 256.2 48.9C256.1 48.6 255.8 48.4 255.7 48.1C255.6 47.9 255.7 47.7 255.7 47.5C255.5 46.6 255.2 46.6 255.6 45.8C256.5 44.1 255.1 44.4 253.8 44.3C253.8 43.7 254 42.6 253.8 42.1C253.5 41.5 252.6 41.6 252.1 41.5C251.2 41.4 251.4 41.1 251.4 40.3C251.4 39.8 251.4 39.2 251.4 38.7C250.6 38.6 249.8 38.7 249 38.7C248.6 38.7 247.8 38.8 247.5 38.5C247.2 38.2 247.4 37.6 247.2 37.3C246.7 36.3 245.4 36.3 244.4 36C243.4 35.7 242.4 35.4 241.3 35.2C240.2 35 239.3 34.3 238.4 33.8C234.6 31.8 230.1 30.1 225.7 31C224.6 31.2 223.5 31.7 222.5 32.3C217.9 35.2 216.8 35.3 211.4 34.3C207.3 33.3 205.7 34.9 206.1 38.8Z" fill="#EDECEB"/>
<path d="M247.4 67C247.4 67 249.1 63.2 251.9 50.1C253.6 48.1 254.8 46.1 255.6 44.3C255.2 44.2 254.6 44.2 254 44.2C254 43.6 254.2 42.5 254 42C253.7 41.4 252.8 41.5 252.3 41.4C251.4 41.3 251.6 41 251.6 40.2C251.6 39.7 251.6 39.1 251.6 38.6C250.8 38.5 250 38.6 249.2 38.6C248.8 38.6 248 38.7 247.7 38.4C247.4 38.1 247.6 37.5 247.4 37.2C247.1 36.6 246.5 36.4 245.8 36.2L238.8 68L247.4 67Z" fill="black"/>
<path d="M226 0.700002C226 0.700002 200.3 1 199.4 32.4C198.5 63.8 216.7 80 236.2 83.6C255.7 87.2 236.4 49.3 236.4 49.3C236.4 49.3 253.2 53 255.4 34.7C258.8 6.6 237.9 -2.8 226 0.700002Z" fill="black"/>
<path d="M361 194C361 194 348.6 225 331.8 229.9C315 234.8 252.6 234.8 253 213.5C253.4 192.2 271.6 148 304.4 150.2C337.2 152.4 366.3 179.9 361 194Z" fill="#AD1E1E"/>
<path d="M224 60.9L223 75.6L172.4 93.4C172.4 93.4 220 128.6 242.8 120.9C265.6 113.2 293.3 83.2 293.3 83.2L252.2 73L244.2 56.6L224 60.9Z" fill="#EDECEB"/>
<path d="M247.4 63.1L244.7 57.6L223.9 62L223.6 66C225.1 68.9 229.4 76 237.9 75.2C244.4 74.7 247.6 68.3 247.4 63.1Z" fill="#CCCCCC"/>
<path d="M218.7 77.1C218.7 77.1 222.5 101.3 242.1 99.9C261.5 98.5 258.9 74.4 258.9 74.4C258.9 74.4 292 81.9 298.7 84.6C303.8 94.3 296.3 135.5 296.3 135.5L277.9 212.5L208.3 215.2L171.7 93L218.7 77.1Z" fill="black"/>
<path d="M188.4 149.1L192.6 163.1L205.2 160.9L190.3 128.6L188.4 149.1Z" fill="#C42622"/>
<path d="M495.9 315.7C495.9 328.5 424 338.2 335.3 338.2C246.6 338.2 174.7 328.5 174.7 315.7C174.7 302.9 246.6 292.5 335.3 292.5C424 292.5 495.9 302.8 495.9 315.7Z" fill="#F0F3F6"/>
<path d="M202.9 206.7C202.9 206.7 108.1 178.3 62.1 203.9C16.1 229.5 26.6 311 87 338.1C176 338.1 358.3 338.1 358.3 338.1C358.3 338.1 466.1 309.1 440.4 231.7C415.1 155.5 264.1 209 264.1 209L202.9 206.7Z" fill="#E94335"/>
<path d="M152.7 228.8C179.4 231.3 186.4 205.8 187.2 202.6C174 199.5 154 195.5 132.9 193.9C131.4 202.4 129.2 226.6 152.7 228.8Z" fill="#C42622"/>
<path d="M264.1 209L209.4 206.9C208.5 207.5 206.5 207.3 203.9 206.7H202.9C202.9 206.7 197.1 204.9 187.6 202.7C187.5 202.7 187.5 202.8 187.4 202.9C187.4 202.9 219.3 236.4 265.6 227.5C280.3 224.7 296.4 208.5 305.5 197.7C281.5 202.8 264.1 209 264.1 209Z" fill="#C42622"/>
<path d="M175.6 92.3C175.6 92.3 165.1 89.5 156 118.8C146.9 148.1 140 208.2 140 208.2C140 208.2 161.5 233 178.4 215.2C185.5 188.2 195.7 143.9 196.4 119C196.9 97 182.8 93.8 175.6 92.3Z" fill="black"/>
<path d="M250.2 37.8C250.2 37.8 253.4 33.2 255.9 36.5C258.7 40.2 252.4 48 250.4 47.8" fill="#EDECEB"/>
<path d="M251.4 38.7C251.4 38.7 253.3 36.5 254.1 36.4C254.9 36.3 256.1 38.1 255.6 39.7" stroke="black" stroke-width="0.7747" stroke-miterlimit="10" stroke-linecap="round" stroke-linejoin="round"/>
<path d="M213.9 43.2C213.9 43.2 209.4 39.8 208.1 43.8C206.6 48.2 215 53.7 216.8 52.9" fill="#EDECEB"/>
<path d="M213.1 44.5C213.1 44.5 211.5 42.7 209.8 43.2C209 43.4 208.4 45.4 209.4 46.8" stroke="black" stroke-width="0.7747" stroke-miterlimit="10" stroke-linecap="round" stroke-linejoin="round"/>
<path d="M210.7 33C210.7 33 212 69.7 234.7 68.5C253.9 67.5 252.7 33.1 249.3 23.5C247.6 18.8 244.2 10.2 229.5 11C220.4 11.5 208.5 19.5 210.7 33Z" fill="#EDECEB"/>
<path d="M233.9 26.4L227.8 27.1C227.3 27.2 226.9 26.8 226.8 26.3V26.2C226.7 25.7 227.1 25.3 227.6 25.2L233.7 24.5C234.2 24.4 234.6 24.8 234.7 25.3V25.4C234.7 25.9 234.4 26.4 233.9 26.4Z" fill="#D8D8D8"/>
<path d="M234.7 36.4C234.7 36.4 233.7 38.8 233.9 41.3C234.1 43.8 234.7 47.2 234.7 47.2" stroke="black" stroke-width="0.7747" stroke-miterlimit="10" stroke-linecap="round" stroke-linejoin="round"/>
<path d="M230.6 50.8C230.6 50.8 231.7 52.1 233.9 51.8C235.6 51.6 236.2 49.9 236.2 49.9" stroke="black" stroke-width="0.7747" stroke-miterlimit="10" stroke-linecap="round" stroke-linejoin="round"/>
<path d="M236.6 38.7C236.6 38.7 239.3 35.1 245.4 37.7" stroke="black" stroke-width="0.7747" stroke-miterlimit="10" stroke-linecap="round" stroke-linejoin="round"/>
<path d="M227 39.5C227 39.5 222.1 36.5 218.1 40.6" stroke="black" stroke-width="0.7747" stroke-miterlimit="10" stroke-linecap="round" stroke-linejoin="round"/>
<path d="M228.7 57.2C228.7 57.2 230.2 54.8 234.2 54.3C238.1 53.8 239.3 55.8 239.3 55.8C239.3 55.8 236.3 56.3 234.3 56.6C232.3 56.9 228.7 57.2 228.7 57.2Z" fill="#E94335"/>
<path d="M228.1 57.5C228.1 57.5 232.8 56.6 240.2 55.7" stroke="black" stroke-width="0.7747" stroke-miterlimit="10" stroke-linecap="round" stroke-linejoin="round"/>
<path d="M239.1 55.9C239.1 55.9 237.7 58.8 234.8 59.2C231.3 59.6 229.8 57.4 229.8 57.4C229.8 57.4 231 61.2 235.2 60.8C238.6 60.4 239.1 55.9 239.1 55.9Z" fill="#E94335"/>
<path d="M229.7 57.3C229.7 57.3 231.2 59.5 234.7 59.1C237.7 58.8 239 55.8 239 55.8" stroke="black" stroke-width="0.7747" stroke-miterlimit="10" stroke-linecap="round" stroke-linejoin="round"/>
<path d="M231.4 30.6C232.008 30.6 232.5 30.1075 232.5 29.5C232.5 28.8925 232.008 28.4 231.4 28.4C230.793 28.4 230.3 28.8925 230.3 29.5C230.3 30.1075 230.793 30.6 231.4 30.6Z" fill="#E94335"/>
<path d="M235.3 34.6C235.3 34.6 239.7 33.6 242.2 32.7C244.6 31.8 247.5 32.4 248.6 33.1C247.6 31.9 245.4 30.1 242.4 31C239.4 31.9 235.9 32.1 235.2 32.1C234.5 32.1 234.5 33.8 235.3 34.6Z" fill="black"/>
<path d="M227.7 35C227.7 35 223.2 34.7 220.6 34.3C218 33.8 215.3 34.9 214.3 35.8C215.1 34.5 216.9 32.3 220.1 32.7C223.2 33 226.7 32.7 227.4 32.6C228 32.5 228.3 34.1 227.7 35Z" fill="black"/>
<path d="M306.8 189.7C286.7 158.9 280.2 136.6 279.5 111.7C278.9 89.7 290.2 85.7 297.5 84.3C297.5 84.3 310.8 82.2 319.9 111.5C329 140.8 337.7 171.6 337.7 171.6" fill="black"/>
<path d="M258.2 70.8C258.2 70.8 311.6 77.9 319.7 94.2C327.8 110.5 386.4 204.9 386.4 204.9L351.9 200.9C351.9 200.9 333.7 164.4 308.7 169C289.1 172.7 285.6 206.3 271.2 216.5C239.7 238.7 202.8 213.2 202.8 213.2C202.8 213.2 187.9 203.7 187.1 202.6C186.3 201.4 189.3 191 189.3 191C189.3 191 186.6 185.4 186.8 183C187 180.7 189.8 179.6 190 175.6C190.2 171.6 191.1 159.3 191.1 159.3L258.2 70.8Z" fill="#E94335"/>
<path d="M205.6 58.6C205.6 58.6 197.6 73.2 199 80.3C192.8 94 189.3 154.7 196.3 177.2C203.3 199.7 211 207.3 222.9 221.5C229.7 215.2 235 208.7 237.9 203.6C245.3 190.4 254.9 165.3 247 132.1C239.1 98.9 222.4 83.9 222.9 67.5C214.4 59 205.6 58.6 205.6 58.6Z" fill="black"/>
<path d="M199 80.3C192.8 94 189.3 154.7 196.3 177.2" stroke="white" stroke-width="0.5226" stroke-miterlimit="10" stroke-linecap="round"/>
<path d="M319.7 94.2C317.8 90.3 313.2 87 307.5 84.1L311.9 158.2C311.9 158.2 313.8 163 316.8 168.9C326.6 170.4 335 177.6 341.1 184.8C346 152.4 353.1 154.7 363.6 167.7C346.1 139.4 324.4 103.6 319.7 94.2Z" fill="#C42622"/>
<path d="M300.2 80.7C300.2 80.7 293.9 68.1 296.4 61.7C298.9 55.3 302.1 53.3 302.1 53.3C302.1 53.3 301.9 48.2 301.7 47.6C301.5 47 299.5 44.6 299.5 44.6C299.5 44.6 292.2 37.5 292.8 36.4C293.4 35.4 296 37 296 37C296 37 291.5 30.7 292.6 29.4C293.7 28.1 298.2 33.3 299.9 34.6C295.3 28.7 294.7 27.3 295.3 26.4C295.9 25.5 300.4 29.5 302.6 31.6C304.8 33.7 313.7 40.4 313.7 40.4C313.7 40.4 308.8 22.4 310.2 20.8C311.6 19.1 313.4 24.9 314 26.2C314.6 27.5 321 41.1 321.4 42.3C321.8 43.5 317.6 75.5 314 86.5" fill="#EDECEB"/>
<path d="M313.7 40.4C313.7 40.4 314.9 41.5 314.8 43.5C314.7 45.5 314.2 53.1 314.2 53.1" stroke="black" stroke-width="0.6879" stroke-miterlimit="10" stroke-linecap="round" stroke-linejoin="round"/>
<path d="M299.9 34.6C299.9 34.6 306.7 39.9 308.2 41.3C309.7 42.7 310.2 51.1 310.3 52.3" stroke="black" stroke-width="0.6879" stroke-miterlimit="10" stroke-linecap="round" stroke-linejoin="round"/>
<path d="M295.9 37C295.9 37 304.7 43.7 305.6 44.5C306.5 45.3 306.5 51.4 306.7 52.5" stroke="black" stroke-width="0.6879" stroke-miterlimit="10" stroke-linecap="round" stroke-linejoin="round"/>
<path d="M314.3 80.8C314.3 80.8 325.9 113.2 333.7 143.9C338.5 162.7 342.8 197.4 326.6 199.2C307.9 201.3 301.4 185.5 297.4 153.8C294.3 129.7 301.5 72.4 301.5 72.4C301.5 72.4 309.2 71.4 314.3 80.8Z" fill="#EDECEB"/>
<path d="M182.8 190.2C182.8 190.2 187.3 223.4 161.7 225.6C132.4 228.1 140.4 203 142.1 199C146.7 188 172.4 173.8 172.4 173.8C172.4 173.8 182.3 177.6 182.8 190.2Z" fill="#EDECEB"/>
<path d="M183.7 168.8C183.7 168.8 199.4 170 205.8 169.5C212.3 169 204.1 174.4 196.1 175.4C188.1 176.4 184.2 181.9 184.2 181.9C184.2 181.9 172.9 182.3 173.1 176.5C173.1 170.7 179.7 166.4 183.7 168.8Z" fill="#EDECEB"/>
<path d="M183.6 168.7C183.6 168.7 212.1 181.3 210.3 183.9C208.7 186.3 183.2 176.9 183.2 176.9L183.3 178C183.3 178 208.7 187.8 208.1 189.3C207.5 190.8 198.5 189.4 198.5 189.4C198.5 189.4 197.5 191.8 196.6 192.5C196.2 196 181.5 195.4 175.3 193.9C169.1 192.4 168.9 188.1 168.9 188.1C168.9 188.1 166.5 185.9 169 181.8C167.6 178.1 169.2 175.3 171.3 173.4C171.4 169.8 174 166.6 176.6 166.6C179.2 166.4 183.6 168.7 183.6 168.7Z" fill="#EDECEB"/>
<path d="M196.6 192.4C196.2 195.9 181.5 195.3 175.3 193.8C169.1 192.3 168.9 188 168.9 188C168.9 188 166.5 185.8 169 181.7C167.6 178 169.2 175.2 171.3 173.3" stroke="black" stroke-width="0.475" stroke-miterlimit="10" stroke-linecap="round" stroke-linejoin="round"/>
<path d="M183.6 168.7C183.6 168.7 212.1 181.3 210.3 183.9C208.7 186.3 183.2 176.9 183.2 176.9" stroke="black" stroke-width="0.475" stroke-miterlimit="10" stroke-linecap="round" stroke-linejoin="round"/>
<path d="M198.5 189.3L184.1 186.8" stroke="black" stroke-width="0.475" stroke-miterlimit="10" stroke-linecap="round" stroke-linejoin="round"/>
<path d="M196.6 192.4L183.8 191.4" stroke="black" stroke-width="0.475" stroke-miterlimit="10" stroke-linecap="round" stroke-linejoin="round"/>
<path d="M229.1 285C229.1 285 166.7 268.2 113.6 336.8C142.8 293 182.6 273.7 229.1 285Z" fill="#C42622"/>
<path d="M177.3 226.4C177.3 226.4 335.3 289.5 380.9 329.8C397.5 322.4 419.2 309.9 432.5 291C407.5 288.2 347 279.5 278.2 257.8C225.6 241.2 177.3 226.4 177.3 226.4Z" fill="#C42622"/>
<path d="M33.5999 259.8C33.5999 260.9 33.6999 262 33.7999 263.2C49.9999 250.5 83.8999 223.6 129.5 220.2C109.4 219.5 77.3999 225.5 33.5999 259.8Z" fill="#C42622"/>
<path d="M373.9 191.1C373.9 191.1 316.1 211.6 297.5 225.5C278.9 239.4 257.7 245.4 226.4 234.8C260.3 241.4 272.7 240 296.5 223.3C320.2 206.6 373.9 191.1 373.9 191.1Z" fill="#C42622"/>
<path d="M229.2 15.6C229.2 15.6 240 16.8 243.3 22.4C246.6 28 248.5 32.4 251 38.8C255.3 29.3 251.7 10.8 244.1 7.79999C236.5 4.79999 228 6.59999 218.7 10.5C209.4 14.4 208.6 19.1 208.1 27.6C207.6 36.1 212.7 44.5 212.7 44.5C212.7 44.5 214.4 37.2 215.2 31.1C216 25 220.5 18.2 229.2 15.6Z" fill="black"/>
<path d="M290.4 90.1C290.4 90.1 303.8 99.9 303.1 119.8C302.7 132 289.3 165.2 311.1 213.1C327.7 249.6 352.8 290.1 335.8 331.4" stroke="black" stroke-width="1.3647" stroke-miterlimit="10"/>
<path d="M261.2 78.2L366.5 150.8C367.4 151.4 367.6 152.6 366.9 153.4C366.3 154.1 365.2 154.3 364.4 153.8L259.2 81.7L261.2 78.2Z" fill="black" stroke="white" stroke-width="0.8396" stroke-miterlimit="10"/>
<path d="M326.1 128.2V332.1" stroke="black" stroke-width="4.2651" stroke-miterlimit="10"/>
<path d="M326.1 240.7V332.1" stroke="black" stroke-width="7.1085" stroke-miterlimit="10"/>
<path d="M326.1 133.3C330.353 133.3 333.8 129.853 333.8 125.6C333.8 121.347 330.353 117.9 326.1 117.9C321.848 117.9 318.4 121.347 318.4 125.6C318.4 129.853 321.848 133.3 326.1 133.3Z" fill="black" stroke="white" stroke-width="1.6793" stroke-miterlimit="10"/>
<path d="M326.1 128.2C327.536 128.2 328.7 127.036 328.7 125.6C328.7 124.164 327.536 123 326.1 123C324.664 123 323.5 124.164 323.5 125.6C323.5 127.036 324.664 128.2 326.1 128.2Z" fill="black" stroke="white" stroke-width="1.6793" stroke-miterlimit="10"/>
<path d="M346.9 320.1H305.3V329.7H346.9V320.1Z" fill="black" stroke="white" stroke-width="1.3647" stroke-miterlimit="10"/>
<path d="M356.1 327.9H296.1V337.5H356.1V327.9Z" fill="black" stroke="white" stroke-width="1.3647" stroke-miterlimit="10"/>
<path d="M258.4 60.6L290.5 84.2C290.5 84.2 293.2 87.7 290.9 90.7C288.6 93.7 284.8 91.7 284.8 91.7L251.5 69.8L258.4 60.6Z" fill="black" stroke="white" stroke-width="0.8396" stroke-miterlimit="10"/>
<path d="M261.4 60.8L252.3 73C252.3 73 244.9 68.8 242.3 65.3C239.7 61.7 246.1 53.4 249.8 53.6C253.5 53.8 261.4 60.8 261.4 60.8Z" fill="black" stroke="white" stroke-width="0.8396" stroke-miterlimit="10"/>
<path d="M290.5 84.2L284.7 91.6" stroke="white" stroke-width="0.8396" stroke-miterlimit="10"/>
<path d="M267.3 64.3L261.6 85.3L270.7 91.7L278 68.4L267.3 64.3Z" fill="black" stroke="white" stroke-width="0.8396" stroke-miterlimit="10"/>
</g>
<defs>
<clipPath id="clip0_74_9761">
<rect width="504" height="338" fill="white"/>
</clipPath>
</defs>
</svg>
